<?xml version="1.0" encoding="utf-8"?>
<!-- Generator: Adobe Illustrator 28.3.0, SVG Export Plug-In . SVG Version: 6.00 Build 0)  -->
<svg version="1.1" id="Layer_1" xmlns="http://www.w3.org/2000/svg" xmlns:xlink="http://www.w3.org/1999/xlink" x="0px" y="0px"
	 viewBox="0 0 2000 2000" style="enable-background:new 0 0 2000 2000;" xml:space="preserve">
<style type="text/css">
	.st0{fill:#FFFFFF;}
	.st1{font-family:'Moldern-Regular';}
	.st2{font-size:267.9629px;}
	.st3{letter-spacing:26.41;}
	.st4{font-family:'Montserrat-Medium';}
	.st5{font-size:51.0774px;}
	.st6{letter-spacing:25;}
</style>
<path class="st0" d="M570.23,852.33v41.78H404.69c-43.5,0-78.77,35.28-78.77,78.81v174.74h-41.74V974.52
	c0-67.47,54.66-122.18,122.09-122.18H570.23z"/>
<path class="st0" d="M570.23,901.01v153.04h-19.5c-35.88,0-64.98,29.11-64.98,65.02v28.6H332.82V972.04
	c0-39.23,31.78-71.03,70.98-71.03H570.23z"/>
<path class="st0" d="M570.23,1062.22v85.44h-76.31v-28.09c0-31.68,25.67-57.35,57.32-57.35H570.23z"/>
<path class="st0" d="M570.23,901.01v153.04h-19.5c-35.88,0-64.98,29.11-64.98,65.02v28.6H332.82V972.04
	c0-39.23,31.78-71.03,70.98-71.03H570.23z"/>
<path class="st0" d="M570.23,1062.22v85.44h-76.31v-28.09c0-31.68,25.67-57.35,57.32-57.35H570.23z"/>
<path class="st0" d="M570.23,901.01v153.04h-19.5c-35.88,0-64.98,29.11-64.98,65.02v28.6H332.82V972.04
	c0-39.23,31.78-71.03,70.98-71.03H570.23z"/>
<path class="st0" d="M570.23,1062.22v85.44h-76.31v-28.09c0-31.68,25.67-57.35,57.32-57.35H570.23z"/>
<path class="st0" d="M570.23,1062.22v85.44h-76.31v-28.09c0-31.68,25.67-57.35,57.32-57.35H570.23z"/>
<path class="st0" d="M570.23,1062.22v85.44h-76.31v-28.09c0-31.68,25.67-57.35,57.32-57.35H570.23z"/>
<text transform="matrix(0.9845 0 0 1 593.961 1053.2175)" class="st0 st1 st2 st3">FORCE</text>
<text transform="matrix(1 0 0 1 839.8352 1121.7714)" class="st0 st4 st5 st6">REAL ESTATE</text>
</svg>
