<?xml version="1.0" encoding="utf-8"?>
<!-- Generator: Adobe Illustrator 28.3.0, SVG Export Plug-In . SVG Version: 6.00 Build 0)  -->
<svg version="1.1" id="Layer_1" xmlns="http://www.w3.org/2000/svg" xmlns:xlink="http://www.w3.org/1999/xlink" x="0px" y="0px"
	 viewBox="0 0 2000 2000" style="enable-background:new 0 0 2000 2000;" xml:space="preserve">
<style type="text/css">
	.st0{fill:#BE9C68;}
	.st1{fill:#E8E0CB;}
	.st2{font-family:'Moldern-Regular';}
	.st3{font-size:262.3826px;}
	.st4{letter-spacing:25.39;}
	.st5{font-family:'Montserrat-Medium';}
	.st6{font-size:51.0774px;}
	.st7{letter-spacing:25;}
</style>
<path class="st0" d="M555.62,821.66v41.78H392.33c-43.5,0-78.77,35.28-78.77,78.81v174.74h-41.74V943.84
	c0-67.47,54.66-122.18,122.09-122.18H555.62z"/>
<path class="st0" d="M555.53,882.79l0.09,135.66h-19.5c-31.79,0-68.9,34.03-68.9,69.94v28.6H332.15V950.04
	c0-39.23,26.42-67.25,65.62-67.25H555.53z"/>
<path class="st1" d="M555.62,1032.05v84.94l-73.55,0v-19.92c0-35.91,29.1-65.02,64.98-65.02L555.62,1032.05z"/>
<text transform="matrix(0.9845 0 0 1 581.5989 1017.8004)" class="st0 st2 st3 st4">FORCE</text>
<text transform="matrix(1 0 0 1 827.4729 1091.0981)" class="st1 st5 st6 st7">REAL ESTATE</text>
</svg>
