<?xml version="1.0" encoding="UTF-8" standalone="no" ?>
<!DOCTYPE svg PUBLIC "-//W3C//DTD SVG 1.1//EN" "http://www.w3.org/Graphics/SVG/1.1/DTD/svg11.dtd">
<svg xmlns="http://www.w3.org/2000/svg" xmlns:xlink="http://www.w3.org/1999/xlink" version="1.1" width="1000" height="270" viewBox="0 0 1000 270" xml:space="preserve">
<desc>Created with Fabric.js 5.2.4</desc>
<defs>
</defs>
<g transform="matrix(1 0 0 1 500 135)" id="6b92fa48-b4d8-42f0-9dd8-b75fad5e97e6"  >
<rect style="stroke: none; stroke-width: 1; stroke-dasharray: none; stroke-linecap: butt; stroke-dashoffset: 0; stroke-linejoin: miter; stroke-miterlimit: 4; fill: rgb(255,255,255); fill-rule: nonzero; opacity: 1; visibility: hidden;" vector-effect="non-scaling-stroke"  x="-500" y="-135" rx="0" ry="0" width="1000" height="270" />
</g>
<g transform="matrix(Infinity NaN NaN Infinity 0 0)" id="0fff810a-6109-4496-8b35-e39925ada0c6"  >
</g>
<g transform="matrix(0.77 0 0 0.77 500 119.81)"  >
<g style="" vector-effect="non-scaling-stroke"   >
		<g transform="matrix(1 0 0 1 -489.01 17.22)"  >
<path style="stroke: none; stroke-width: 1; stroke-dasharray: none; stroke-linecap: butt; stroke-dashoffset: 0; stroke-linejoin: miter; stroke-miterlimit: 4; fill: rgb(0,0,0); fill-rule: nonzero; opacity: 1;" vector-effect="non-scaling-stroke"  transform=" translate(-427.21, -1000)" d="M 570.23 852.33 L 570.23 894.11 L 404.69 894.11 C 361.19 894.11 325.92 929.39 325.92 972.9200000000001 L 325.92 1147.66 L 284.18 1147.66 L 284.18 974.52 C 284.18 907.05 338.84000000000003 852.3399999999999 406.27 852.3399999999999 L 570.23 852.3399999999999 z" stroke-linecap="round" />
</g>
		<g transform="matrix(1 0 0 1 -464.69 41.57)"  >
<path style="stroke: none; stroke-width: 1; stroke-dasharray: none; stroke-linecap: butt; stroke-dashoffset: 0; stroke-linejoin: miter; stroke-miterlimit: 4; fill: rgb(0,0,0); fill-rule: nonzero; opacity: 1;" vector-effect="non-scaling-stroke"  transform=" translate(-451.52, -1024.34)" d="M 570.23 901.01 L 570.23 1054.05 L 550.73 1054.05 C 514.85 1054.05 485.75 1083.1599999999999 485.75 1119.07 L 485.75 1147.6699999999998 L 332.82 1147.6699999999998 L 332.82 972.04 C 332.82 932.81 364.6 901.01 403.8 901.01 L 570.23 901.01 z" stroke-linecap="round" />
</g>
		<g transform="matrix(1 0 0 1 -384.14 122.17)"  >
<path style="stroke: none; stroke-width: 1; stroke-dasharray: none; stroke-linecap: butt; stroke-dashoffset: 0; stroke-linejoin: miter; stroke-miterlimit: 4; fill: rgb(0,0,0); fill-rule: nonzero; opacity: 1;" vector-effect="non-scaling-stroke"  transform=" translate(-532.08, -1104.94)" d="M 570.23 1062.22 L 570.23 1147.66 L 493.92 1147.66 L 493.92 1119.5700000000002 C 493.92 1087.89 519.59 1062.2200000000003 551.24 1062.2200000000003 L 570.23 1062.2200000000003 z" stroke-linecap="round" />
</g>
		<g transform="matrix(1 0 0 1 -464.69 41.57)"  >
<path style="stroke: none; stroke-width: 1; stroke-dasharray: none; stroke-linecap: butt; stroke-dashoffset: 0; stroke-linejoin: miter; stroke-miterlimit: 4; fill: rgb(0,0,0); fill-rule: nonzero; opacity: 1;" vector-effect="non-scaling-stroke"  transform=" translate(-451.52, -1024.34)" d="M 570.23 901.01 L 570.23 1054.05 L 550.73 1054.05 C 514.85 1054.05 485.75 1083.1599999999999 485.75 1119.07 L 485.75 1147.6699999999998 L 332.82 1147.6699999999998 L 332.82 972.04 C 332.82 932.81 364.6 901.01 403.8 901.01 L 570.23 901.01 z" stroke-linecap="round" />
</g>
		<g transform="matrix(1 0 0 1 -384.14 122.17)"  >
<path style="stroke: none; stroke-width: 1; stroke-dasharray: none; stroke-linecap: butt; stroke-dashoffset: 0; stroke-linejoin: miter; stroke-miterlimit: 4; fill: rgb(0,0,0); fill-rule: nonzero; opacity: 1;" vector-effect="non-scaling-stroke"  transform=" translate(-532.08, -1104.94)" d="M 570.23 1062.22 L 570.23 1147.66 L 493.92 1147.66 L 493.92 1119.5700000000002 C 493.92 1087.89 519.59 1062.2200000000003 551.24 1062.2200000000003 L 570.23 1062.2200000000003 z" stroke-linecap="round" />
</g>
		<g transform="matrix(1 0 0 1 -464.69 41.57)"  >
<path style="stroke: none; stroke-width: 1; stroke-dasharray: none; stroke-linecap: butt; stroke-dashoffset: 0; stroke-linejoin: miter; stroke-miterlimit: 4; fill: rgb(0,0,0); fill-rule: nonzero; opacity: 1;" vector-effect="non-scaling-stroke"  transform=" translate(-451.52, -1024.34)" d="M 570.23 901.01 L 570.23 1054.05 L 550.73 1054.05 C 514.85 1054.05 485.75 1083.1599999999999 485.75 1119.07 L 485.75 1147.6699999999998 L 332.82 1147.6699999999998 L 332.82 972.04 C 332.82 932.81 364.6 901.01 403.8 901.01 L 570.23 901.01 z" stroke-linecap="round" />
</g>
		<g transform="matrix(1 0 0 1 -384.14 122.17)"  >
<path style="stroke: none; stroke-width: 1; stroke-dasharray: none; stroke-linecap: butt; stroke-dashoffset: 0; stroke-linejoin: miter; stroke-miterlimit: 4; fill: rgb(0,0,0); fill-rule: nonzero; opacity: 1;" vector-effect="non-scaling-stroke"  transform=" translate(-532.08, -1104.94)" d="M 570.23 1062.22 L 570.23 1147.66 L 493.92 1147.66 L 493.92 1119.5700000000002 C 493.92 1087.89 519.59 1062.2200000000003 551.24 1062.2200000000003 L 570.23 1062.2200000000003 z" stroke-linecap="round" />
</g>
		<g transform="matrix(1 0 0 1 -384.14 122.17)"  >
<path style="stroke: none; stroke-width: 1; stroke-dasharray: none; stroke-linecap: butt; stroke-dashoffset: 0; stroke-linejoin: miter; stroke-miterlimit: 4; fill: rgb(0,0,0); fill-rule: nonzero; opacity: 1;" vector-effect="non-scaling-stroke"  transform=" translate(-532.08, -1104.94)" d="M 570.23 1062.22 L 570.23 1147.66 L 493.92 1147.66 L 493.92 1119.5700000000002 C 493.92 1087.89 519.59 1062.2200000000003 551.24 1062.2200000000003 L 570.23 1062.2200000000003 z" stroke-linecap="round" />
</g>
		<g transform="matrix(1 0 0 1 -384.14 122.17)"  >
<path style="stroke: none; stroke-width: 1; stroke-dasharray: none; stroke-linecap: butt; stroke-dashoffset: 0; stroke-linejoin: miter; stroke-miterlimit: 4; fill: rgb(0,0,0); fill-rule: nonzero; opacity: 1;" vector-effect="non-scaling-stroke"  transform=" translate(-532.08, -1104.94)" d="M 570.23 1062.22 L 570.23 1147.66 L 493.92 1147.66 L 493.92 1119.5700000000002 C 493.92 1087.89 519.59 1062.2200000000003 551.24 1062.2200000000003 L 570.23 1062.2200000000003 z" stroke-linecap="round" />
</g>
		<g transform="matrix(0.98 0 0 1 154.89 -13.5)" style=""  >
		<text xml:space="preserve" font-family="'Moldern-Regular'" font-size="267.9629" font-style="normal" font-weight="normal" style="stroke: none; stroke-width: 1; stroke-dasharray: none; stroke-linecap: butt; stroke-dashoffset: 0; stroke-linejoin: miter; stroke-miterlimit: 4; fill: rgb(0,0,0); fill-rule: nonzero; opacity: 1; white-space: pre;" ><tspan x="-484.66" y="84.18" >F</tspan><tspan x="-309.22" y="84.18" >O</tspan><tspan x="-89.3" y="84.18" >R</tspan><tspan x="115.84" y="84.18" >C</tspan><tspan x="320.98" y="84.18" >E</tspan></text>
</g>
		<g transform="matrix(1 0 0 1 211.85 123)" style=""  >
		<text xml:space="preserve" font-family="'Montserrat-Medium'" font-size="51.0774" font-style="normal" font-weight="normal" style="stroke: none; stroke-width: 1; stroke-dasharray: none; stroke-linecap: butt; stroke-dashoffset: 0; stroke-linejoin: miter; stroke-miterlimit: 4; fill: rgb(0,0,0); fill-rule: nonzero; opacity: 1; white-space: pre;" ><tspan x="-288.23" y="16.05" >R</tspan><tspan x="-229.16" y="16.05" >E</tspan><tspan x="-172.96" y="16.05" >A</tspan><tspan x="-111.08" y="16.05" >L</tspan><tspan x="-54.88" y="16.05" style="white-space: pre; "> </tspan><tspan x="-17.11" y="16.05" >E</tspan><tspan x="39.09" y="16.05" >S</tspan><tspan x="92.5" y="16.05" >T</tspan><tspan x="144.61" y="16.05" >A</tspan><tspan x="200.83" y="16.05" >T</tspan><tspan x="257.03" y="16.05" >E</tspan></text>
</g>
</g>
</g>
</svg>