<?xml version="1.0" encoding="UTF-8" standalone="no" ?>
<!DOCTYPE svg PUBLIC "-//W3C//DTD SVG 1.1//EN" "http://www.w3.org/Graphics/SVG/1.1/DTD/svg11.dtd">
<svg xmlns="http://www.w3.org/2000/svg" xmlns:xlink="http://www.w3.org/1999/xlink" version="1.1" width="1080" height="280" viewBox="0 0 1080 280" xml:space="preserve">
<desc>Created with Fabric.js 5.2.4</desc>
<defs>
</defs>
<rect x="0" y="0" width="100%" height="100%" fill="transparent"></rect>
<g transform="matrix(1 0 0 1 540 140)" id="82f772fe-d8c9-432f-addb-7aa161b1e33a"  >
<rect style="stroke: none; stroke-width: 1; stroke-dasharray: none; stroke-linecap: butt; stroke-dashoffset: 0; stroke-linejoin: miter; stroke-miterlimit: 4; fill: rgb(255,255,255); fill-rule: nonzero; opacity: 1; visibility: hidden;" vector-effect="non-scaling-stroke"  x="-540" y="-140" rx="0" ry="0" width="1080" height="280" />
</g>
<g transform="matrix(0 0 0 0 0 0)" id="fa738865-012f-4cc1-9dcc-bb0b551b4b4e"  >
</g>
<g transform="matrix(0.84 0 0 0.84 540 123.95)"  >
<g style="" vector-effect="non-scaling-stroke"   >
		<g transform="matrix(1 0 0 1 -479.28 17.16)"  >
<path style="stroke: none; stroke-width: 1; stroke-dasharray: none; stroke-linecap: butt; stroke-dashoffset: 0; stroke-linejoin: miter; stroke-miterlimit: 4; fill: rgb(190,156,104); fill-rule: nonzero; opacity: 1;" vector-effect="non-scaling-stroke"  transform=" translate(-413.72, -969.33)" d="M 555.62 821.66 L 555.62 863.4399999999999 L 392.33 863.4399999999999 C 348.83 863.4399999999999 313.56 898.7199999999999 313.56 942.25 L 313.56 1116.99 L 271.82 1116.99 L 271.82 943.84 C 271.82 876.37 326.48 821.6600000000001 393.90999999999997 821.6600000000001 L 555.62 821.6600000000001 z" stroke-linecap="round" />
</g>
		<g transform="matrix(1 0 0 1 -449.12 47.72)"  >
<path style="stroke: none; stroke-width: 1; stroke-dasharray: none; stroke-linecap: butt; stroke-dashoffset: 0; stroke-linejoin: miter; stroke-miterlimit: 4; fill: rgb(190,156,104); fill-rule: nonzero; opacity: 1;" vector-effect="non-scaling-stroke"  transform=" translate(-443.88, -999.89)" d="M 555.53 882.79 L 555.62 1018.4499999999999 L 536.12 1018.4499999999999 C 504.33 1018.4499999999999 467.22 1052.48 467.22 1088.3899999999999 L 467.22 1116.9899999999998 L 332.15 1116.9899999999998 L 332.15 950.04 C 332.15 910.81 358.57 882.79 397.77 882.79 L 555.53 882.79 z" stroke-linecap="round" />
</g>
		<g transform="matrix(1 0 0 1 -374.15 122.35)"  >
<path style="stroke: none; stroke-width: 1; stroke-dasharray: none; stroke-linecap: butt; stroke-dashoffset: 0; stroke-linejoin: miter; stroke-miterlimit: 4; fill: rgb(232,224,203); fill-rule: nonzero; opacity: 1;" vector-effect="non-scaling-stroke"  transform=" translate(-518.85, -1074.52)" d="M 555.62 1032.05 L 555.62 1116.99 L 482.07 1116.99 L 482.07 1097.07 C 482.07 1061.1599999999999 511.17 1032.05 547.05 1032.05 L 555.62 1032.05 z" stroke-linecap="round" />
</g>
		<g transform="matrix(0.98 0 0 1 152.76 -16.57)" style=""  >
		<text xml:space="preserve" font-family="'Moldern-Regular'" font-size="262.3826" font-style="normal" font-weight="normal" style="stroke: none; stroke-width: 1; stroke-dasharray: none; stroke-linecap: butt; stroke-dashoffset: 0; stroke-linejoin: miter; stroke-miterlimit: 4; fill: rgb(190,156,104); fill-rule: nonzero; opacity: 1; white-space: pre;" ><tspan x="-473.63" y="82.42" >F</tspan><tspan x="-302.31" y="82.42" >O</tspan><tspan x="-87.44" y="82.42" >R</tspan><tspan x="112.96" y="82.42" >C</tspan><tspan x="313.35" y="82.42" >E</tspan></text>
</g>
		<g transform="matrix(1 0 0 1 222.71 122.93)" style=""  >
		<text xml:space="preserve" font-family="'Montserrat-Medium'" font-size="51.0774" font-style="normal" font-weight="normal" style="stroke: none; stroke-width: 1; stroke-dasharray: none; stroke-linecap: butt; stroke-dashoffset: 0; stroke-linejoin: miter; stroke-miterlimit: 4; fill: rgb(232,224,203); fill-rule: nonzero; opacity: 1; white-space: pre;" ><tspan x="-288.23" y="16.05" >R</tspan><tspan x="-229.16" y="16.05" >E</tspan><tspan x="-172.96" y="16.05" >A</tspan><tspan x="-111.08" y="16.05" >L</tspan><tspan x="-54.88" y="16.05" style="white-space: pre; "> </tspan><tspan x="-17.11" y="16.05" >E</tspan><tspan x="39.09" y="16.05" >S</tspan><tspan x="92.5" y="16.05" >T</tspan><tspan x="144.61" y="16.05" >A</tspan><tspan x="200.83" y="16.05" >T</tspan><tspan x="257.03" y="16.05" >E</tspan></text>
</g>
</g>
</g>
<g transform="matrix(0 0 0 0 0 0)"  >
<g style=""   >
</g>
</g>
</svg>